<?xml version="1.0" encoding="UTF-8"?>
<!-- Created with Inkscape (http://www.inkscape.org/) -->
<svg width="526.36" height="477.04" version="1.0" xmlns="http://www.w3.org/2000/svg">
 <g transform="translate(-91.424 -253.59)">
  <g fill-rule="evenodd" stroke="#000" stroke-linejoin="round" stroke-width="1px">
   <path d="m396.89 254.29-185.55 330.26 206.26 0.11485 39.564 70.714-365.22 0.057 222.8-401.35z" fill="#fff"/>
   <path d="m396.9 254.27 220.39 401.11-40.406 72.731-182.84-331.33-102.03 187.89h-80.812z" fill="#7d7e7c"/>
   <path d="m394 396.84-40.291 74.219 103.63 184.38-365.42 0.18957 38.47 74.5 446.47-2.0469z"/>
  </g>
  <path transform="translate(91.424 253.59)" d="m446.35 401.94c-21.473-38.907-62.461-113.17-91.083-165.04-28.622-51.865-52.277-94.379-52.566-94.475-0.28931-0.0964-11.281 19.645-24.427 43.87-13.146 24.225-36.091 66.493-50.99 93.93l-27.089 49.884-79.132 0.27971 1.0328-1.7754c0.56803-0.97647 41.906-74.511 91.862-163.41 49.956-88.899 91.026-161.83 91.268-162.07s49.775 89.355 110.08 199.1l109.64 199.54-19.603 35.282c-10.782 19.405-19.68 35.358-19.773 35.452-0.0934 0.0934-17.739-31.663-39.212-70.57z" fill="#9617b6" stroke-width=".54518"/>
  <path transform="translate(91.424 253.59)" d="m2.305 400.61c0.11831-0.35493 50.003-90.407 110.85-200.12l110.64-199.47 39.799 0.35919c21.889 0.19755 39.875 0.43229 39.969 0.52164 0.0939 0.089349-41.428 74.18-92.272 164.65-50.843 90.466-92.306 164.7-92.139 164.97 0.17872 0.28917 42.773 0.49163 103.45 0.49171l103.14 1.4e-4 19.081 34.098c10.495 18.754 19.163 34.333 19.263 34.619 0.11529 0.33052-66.025 0.52099-180.91 0.52099-139.22 0-181.04-0.14921-180.88-0.64533z" fill="#f5f5f5" stroke-width=".54518"/>
 </g>
</svg>
